<?xml version="1.0" ?><!DOCTYPE svg  PUBLIC '-//W3C//DTD SVG 1.1//EN'  'http://www.w3.org/Graphics/SVG/1.1/DTD/svg11.dtd'><svg height="15mm" style="shape-rendering:geometricPrecision; text-rendering:geometricPrecision; image-rendering:optimizeQuality; fill-rule:evenodd; clip-rule:evenodd" viewBox="0 0 100 100" width="15mm" xml:space="preserve" xmlns="http://www.w3.org/2000/svg" xmlns:xlink="http://www.w3.org/1999/xlink"><defs><style type="text/css">
   <![CDATA[
    .fil0 {fill:#3f51b5}
   ]]>
  </style></defs><g id="Ebene_x0020_1"><path class="fil0" d="M53.125 68.7499l-0.0001 -15.625 5.3238 0 0.7129 -6.2501 -6.0512 0 0 -3.8172c0,-1.7693 0.4913,-2.975 3.0285,-2.975l3.2359 -0.0015 0 -5.4654c-0.5599,-0.0744 -2.4526,-0.2408 -4.6873,-0.2408 -4.6654,0 -7.8126,2.8478 -7.8126,8.0776l0 4.4224 -5.4687 0 0 6.2499 5.4688 0.0001 -0.0001 15.625 6.2501 0zm-34.0607 12.1859c-17.0852,-17.0854 -17.0852,-44.786 0.0001,-61.8715 17.0854,-17.0851 44.786,-17.0851 61.8714,0 17.0852,17.0854 17.0851,44.786 -0.0001,61.8713 -17.0855,17.0853 -44.786,17.0854 -61.8714,0.0002zm2.2094 -2.2097c-15.8649,-15.8649 -15.8648,-41.5873 0.0003,-57.4523 15.8648,-15.865 41.5872,-15.865 57.452,0 15.8651,15.865 15.8651,41.5873 0.0001,57.4522 -15.8649,15.865 -41.5874,15.8652 -57.4524,0.0001z"/></g></svg>